<svg viewBox="0 0 100 100" xmlns="http://www.w3.org/2000/svg" preserveAspectRatio="none"><g fill="#cc0"><path d="M12.31,52.36v.09C12.41,52.5,12.41,52.32,12.31,52.36Z"/><path d="M2.22,32.63a.2.2,0,0,0,0-.21h0a.17.17,0,0,0-.14,0,.22.22,0,0,0-.18-.12l-.08.08a.3.3,0,0,0,.09.13h0v.12a.21.21,0,0,0,.13,0A.24.24,0,0,0,2.22,32.63Z"/><path d="M24.52,32.9a.16.16,0,0,0-.09-.15h-.11a.13.13,0,0,0-.05.13.14.14,0,0,0,.09.13h.1Z"/><path d="M3.77,15.36h.1a.17.17,0,0,0,0-.1.13.13,0,0,0-.13-.13h0v.07h0v.12h0Z"/><path d="M12.65,53l-.06.07a.14.14,0,0,0,.1.16l.1-.07h0L12.73,53Z"/><path d="M.13,47.92A.1.1,0,0,0,0,48H0a.09.09,0,0,0,0,.07H0l.07.09H.17l.07-.07h0L.16,48Z"/><path d="M43.71,19.53l.07-.06a.26.26,0,0,0,0-.21h-.07s-.12,0-.13.09h0a.08.08,0,0,0-.06.08l.07.07Z"/><path d="M6.29,69.79l-.07.09h0a.29.29,0,0,0,0,.13h.13a.21.21,0,0,0,0-.19A.09.09,0,0,0,6.29,69.79Z"/><path d="M56.76,56.91a.15.15,0,0,0-.14.15.1.1,0,0,0,.08.12h0l.08-.06a.13.13,0,0,0,.06-.15l-.05,0Z"/><path d="M17.64,10.38h.08a.28.28,0,0,0,.09-.27.12.12,0,0,0-.15-.08h0v.12h0v0a.15.15,0,0,0-.06.09l.08.08Z"/><path d="M31.59,87.16l-.07-.09h0l-.11.06v.06h0a.14.14,0,0,0,.09,0S31.56,87.25,31.59,87.16Z"/><path d="M10.5,85.89a.08.08,0,0,0,.08-.07.16.16,0,0,0-.12-.18l-.09.08C10.4,85.86,10.46,85.89,10.5,85.89Z"/><path d="M69.37,26.14h0l-.06-.07a.22.22,0,0,0-.18.1v.09a.13.13,0,0,0,.12,0,0,0,0,0,0,.07,0h.06a.11.11,0,0,0-.06.1v.12h0a.19.19,0,0,0,.18-.14h0v-.11h0a.17.17,0,0,0,0-.1h-.13Z"/><path d="M73.9,10.32h-.16a.11.11,0,0,0,0,.11.19.19,0,0,0,.27,0h0a.11.11,0,0,0,0-.11H73.9Z"/><path d="M49.09,21.27h0L49,21.22a.06.06,0,1,0-.08-.08l-.06.06h-.09l-.09.1a.12.12,0,0,0,0,.14h0v0l.1.08h0a.25.25,0,0,0,.18.1h.06v-.15a.15.15,0,0,0,0-.21h0Z"/><path d="M73.57,80.23v.06h0a.14.14,0,0,0-.09,0,.06.06,0,0,0,0,.08l0,.06h0a.13.13,0,0,0,.12.06h.08v-.08h0V80.3A.17.17,0,0,0,73.57,80.23Z"/><path d="M95.69,37.63h.08a.17.17,0,0,0,0-.14h-.11a.31.31,0,0,0-.11-.09l-.09.08a.24.24,0,0,1,0,.12.33.33,0,0,0,0,.14l.06.07h0a.15.15,0,0,0,.13,0Z"/><path d="M79.17,17.88l-.07-.06a.11.11,0,0,0-.08,0h0a.11.11,0,0,0,0,.11.13.13,0,0,0,.11.06.17.17,0,0,0,.1,0A.11.11,0,0,0,79.17,17.88Z"/><path d="M94.43,84.9h0a.25.25,0,0,0,.18.11l.07-.06h0a.16.16,0,0,0,.15-.16h0a.11.11,0,0,0,0-.11.11.11,0,0,0-.08-.07.16.16,0,0,0-.09-.09h-.25l-.08.09h0a.11.11,0,0,0-.09.14h.05A.2.2,0,0,0,94.43,84.9Z"/><path d="M25.82,4.25l-.07-.07h-.18l-.07.07a.17.17,0,0,0,0,.14.21.21,0,0,0,.11,0,.18.18,0,0,0,.17-.18Z"/><path d="M16.34,69.23V69.1L16.27,69h0a.13.13,0,0,0-.12-.08h0a.17.17,0,0,0,0,.19v.06a.09.09,0,0,0,0,.12h0v.05h.1a.11.11,0,0,0,.12-.1h0v-.07Z"/><path d="M40.82,75l0-.12H40.7v-.14h-.43a.11.11,0,0,0,0,.13h0l.09.07c.1,0,.12,0,.17.11a.57.57,0,0,0,.11.16h.06a.22.22,0,0,0,.12-.11h.07L41,75a.16.16,0,0,0-.06-.08Z"/><path d="M47.11,34.83h0l.06-.08h0a.14.14,0,0,0,.07-.11.07.07,0,0,0-.07-.07h-.1l-.08.07v.07a.1.1,0,0,0,0,.12A.11.11,0,0,0,47.11,34.83Z"/><path d="M48.68.34h0a.2.2,0,0,0,0-.21.2.2,0,0,0-.15-.1h-.07a.11.11,0,0,0,0,.08h0v.1h.12Z"/><path d="M4.3,68.55h0a.07.07,0,0,0,0-.09.21.21,0,0,0,0-.11h0a.09.09,0,0,0,0,.1h0a.06.06,0,0,0,0,.06h0v.12h0a.06.06,0,0,0,0,.06h0v.06h0v.06h.06a.09.09,0,0,0,.06.06h.14c.06,0,0,0,.06-.06H5c.07,0,0-.06,0-.08H5v-.06H5v-.06H4.9v0h0v-.06H4.82a.09.09,0,0,0,0-.07h0a0,0,0,0,0,0-.07.09.09,0,0,0-.1,0H4.58a.14.14,0,0,0,0-.09H4.52v-.06h0v-.06h0V68.1c0-.06,0,0-.08,0H4.38a.12.12,0,0,0,0-.1H4.21v-.06h-.1a.06.06,0,0,0-.08,0l0,0H4A.14.14,0,0,1,4,68H4l.07.07c.07.07,0,.05,0,.06h0v.13h0a0,0,0,0,1,0,0h0a.09.09,0,0,0,.12,0h0A.28.28,0,0,0,4.29,68a.29.29,0,0,0-.39-.09h0a.33.33,0,0,1,0,.14h0a.09.09,0,0,0,0,.07H3.83a.11.11,0,0,0,0,.08.11.11,0,0,0,.08,0h0a.12.12,0,0,0,.07.11H4a.06.06,0,0,0,0,.08H4a.07.07,0,0,0,.1,0h0v.06h0a.09.09,0,0,0,0-.07H4Z"/><path d="M86.56,74.25l-.06-.07a.14.14,0,0,0,0-.09h-.06V74a.17.17,0,0,1-.14,0h0a.24.24,0,0,0-.23,0h0a.07.07,0,0,0-.08,0v0h0a.09.09,0,0,0-.13,0h-.43a.14.14,0,0,0,0,.09h.15v.07h0a.24.24,0,0,1,.08.09h0a.19.19,0,0,0,.12-.07h.07v-.11h0l.06-.07c.06-.07,0,0,.07,0h.09V74h.05a.11.11,0,0,0,0-.08h0a.08.08,0,0,0,0-.12Z"/><path d="M65.57,23.55h0a.17.17,0,0,0,0-.1h0a.07.07,0,0,0,0-.09h-.18a.24.24,0,0,0,0-.12h0a.11.11,0,0,0,0-.08V23.1h0m0-.05V23h0V23a.17.17,0,0,0,0-.1h0s.06-.05,0-.09,0,0-.08,0h0a.08.08,0,0,0-.06-.09h0V22.5h-.06v-.11h0a.11.11,0,0,0-.08,0h0v-.05h0a.18.18,0,0,0-.09-.13h0v-.05h-.11a.06.06,0,0,0,0-.06h0a.06.06,0,0,0-.08,0h-.1V22a.14.14,0,0,1-.09,0h-.05v-.06h0v-.12h0a.06.06,0,0,0-.06,0h0a.18.18,0,0,0,.09-.06h0v-.07a0,0,0,0,0,0,0h0a.09.09,0,0,0-.12,0,.07.07,0,0,0,0,.09h0c0,.08,0,.1.07.12H64.3V22h-.06a.06.06,0,0,0,0,.06h0m0,.05v.06h0v.14h0v.07h.09a.11.11,0,0,0,0-.08h0a.06.06,0,0,1,0-.06h0a.06.06,0,0,0,0-.06h-.76a.11.11,0,0,0,0,.08h0v.05H63.5a.11.11,0,0,0,0,.08h0a.08.08,0,0,0-.11,0h0a.11.11,0,0,0,0,.08h0a.08.08,0,0,0,0,.07h0l0,.05h0a.06.06,0,0,0,0,.06h0a.09.09,0,0,0,0,.1h.06a.11.11,0,0,0,0-.08h0a.06.06,0,0,0,0,.06h0a.22.22,0,0,0,.23-.22.22.22,0,0,0-.21-.23h0v.14h0a.06.06,0,0,0-.07-.06h0a.11.11,0,0,0,0,.11h0a.06.06,0,0,0,0,.06h-.13v-.07h0c0-.09-.1-.11-.17-.12h0a.11.11,0,0,0,0,.08h-.06a.1.1,0,0,0-.06.08h0s0,.08.07.07a.14.14,0,0,0,0,.09h.13v-.05h0v-.06h0a0,0,0,0,1,.06,0,.06.06,0,0,0,0,.06h0a.11.11,0,0,0,0,.08h.07s-.07,0-.07.06l0,.05h.06a.24.24,0,0,0,.11-.09v-.05h0a.09.09,0,0,0-.07,0,.14.14,0,0,0,0-.09h0a.11.11,0,0,0,0-.08h0a.06.06,0,0,0,0-.06h.07a.09.09,0,0,0,0,.07h.11v-.07h0a.09.09,0,0,0,0-.07,0,0,0,0,0-.05,0h0a.12.12,0,0,0-.1-.07h0a.06.06,0,0,0,0-.06h0a.06.06,0,0,0,.06.06h0a.09.09,0,0,0,.07,0h0a.11.11,0,0,0,0,.08h0a.09.09,0,0,0,.1.05h.07v-.05h0a.11.11,0,0,0,0-.08h.07v.06h0a.06.06,0,0,0,0,.06h0a0,0,0,0,0,0,.05h0s-.06,0-.06.07h0v.05h-.07m0,.05h0m0,.06h0v.05h-.05a.08.08,0,0,0,.05-.07h0v-.05h.16s-.06,0,0,.08h0a.09.09,0,0,0,0,.07H64a.11.11,0,0,0,0-.08v0h0a.09.09,0,0,0,0,.07.15.15,0,0,0,.06,0h0v.06h0s0,.06.08.06h0v.05h0a.2.2,0,0,0,0,.11h.24v-.07h0a.24.24,0,0,0,.12,0h0a.06.06,0,0,0,0,.08h0a.08.08,0,0,0-.07.08v.06h0a.17.17,0,0,0,.1,0h0a.11.11,0,0,0,.08,0h0a.13.13,0,0,0,.1.06.06.06,0,0,0,.06-.05h0a.13.13,0,0,0,.13.1v-.05h0v-.06h0m0,.05H65V23a.08.08,0,0,0,.08,0,0,0,0,0,0,0,0h0Zm-1.21-.79Z"/></g></svg>